<?xml version="1.0" encoding="utf-8"?>
<!-- Generator: Adobe Illustrator 19.0.0, SVG Export Plug-In . SVG Version: 6.00 Build 0)  -->
<svg version="1.1" id="Layer_1" xmlns="http://www.w3.org/2000/svg" xmlns:xlink="http://www.w3.org/1999/xlink" x="0px" y="0px"
	 viewBox="-252 375.9 91 91" style="enable-background:new -252 375.9 91 91;" xml:space="preserve">
<style type="text/css">
	.st0{fill:#1E1E1E;}
</style>
<g>
	<g>
		<path class="st0" d="M-206.5,395.6c-14.2,0-25.8,11.6-25.8,25.8c0,14.2,11.6,25.8,25.8,25.8s25.8-11.6,25.8-25.8
			C-180.7,407.2-192.3,395.6-206.5,395.6z M-189.5,407.5c3.1,3.7,4.9,8.5,5,13.7c-0.7-0.2-8-1.6-15.3-0.7l-0.5-1.1
			c-0.5-1.1-0.9-2.1-1.5-3.2C-193.6,412.9-189.9,408.1-189.5,407.5z M-206.5,399.4c5.6,0,10.7,2.1,14.6,5.5c-0.4,0.6-3.7,5-11.5,7.9
			c-3.6-6.6-7.6-12.1-8.2-12.9C-210,399.6-208.3,399.4-206.5,399.4z M-215.9,401.5c0.6,0.8,4.5,6.2,8.2,12.7
			c-10.3,2.7-19.4,2.7-20.3,2.7C-226.6,410.1-222,404.4-215.9,401.5z M-228.5,421.4l0-0.7c1,0,11.6,0.2,22.6-3.1
			c0.6,1.2,1.2,2.5,1.8,3.7l-0.9,0.3c-11.3,3.7-17.4,13.7-17.9,14.5C-226.4,432.2-228.5,427.1-228.5,421.4z M-206.5,443.4
			c-5.1,0-9.8-1.7-13.5-4.6c0.4-0.8,4.9-9.4,17.3-13.7l0.1,0c3.1,8,4.4,14.7,4.7,16.7C-200.5,442.8-203.5,443.4-206.5,443.4z
			 M-194.2,439.7c-0.2-1.3-1.4-7.8-4.3-15.7c6.9-1.1,12.9,0.7,13.7,0.9C-185.8,431-189.3,436.3-194.2,439.7z"/>
	</g>
</g>
<g>
	<path class="st0" d="M-165,379.9v83h-83v-83H-165 M-161,375.9h-91v91h91V375.9L-161,375.9z"/>
</g>
</svg>
