<?xml version="1.0" encoding="utf-8"?>
<!-- Generator: Adobe Illustrator 16.0.0, SVG Export Plug-In . SVG Version: 6.00 Build 0)  -->
<!DOCTYPE svg PUBLIC "-//W3C//DTD SVG 1.1//EN" "http://www.w3.org/Graphics/SVG/1.1/DTD/svg11.dtd">
<svg version="1.1" id="Layer_1" xmlns="http://www.w3.org/2000/svg" xmlns:xlink="http://www.w3.org/1999/xlink" x="0px" y="0px"
	 width="91px" height="91px" viewBox="0 0 91 91" enable-background="new 0 0 91 91" xml:space="preserve">
<circle fill="none" stroke="#EEEEEE" stroke-width="4" stroke-miterlimit="10" cx="45.5" cy="45.5" r="42.484"/>
<g>
	<path fill="#EEEEEE" d="M54.16,22.957l-5.85-0.009c-6.572,0-10.818,4.357-10.818,11.101v5.119h-5.881
		c-0.508,0-0.92,0.412-0.92,0.92v7.416c0,0.508,0.412,0.92,0.92,0.92h5.881v18.713c0,0.51,0.411,0.92,0.919,0.92h7.673
		c0.508,0,0.92-0.41,0.92-0.92V48.424h6.875c0.51,0,0.92-0.412,0.92-0.92l0.002-7.416c0-0.244-0.097-0.478-0.269-0.649
		c-0.173-0.172-0.407-0.271-0.651-0.271h-6.879V34.83c0-2.086,0.498-3.145,3.213-3.145l3.941-0.001c0.508,0,0.919-0.412,0.919-0.92
		v-6.886C55.079,23.369,54.668,22.959,54.16,22.957z"/>
</g>
</svg>
