<?xml version="1.0" encoding="utf-8"?>
<!-- Generator: Adobe Illustrator 16.0.0, SVG Export Plug-In . SVG Version: 6.00 Build 0)  -->
<!DOCTYPE svg PUBLIC "-//W3C//DTD SVG 1.1//EN" "http://www.w3.org/Graphics/SVG/1.1/DTD/svg11.dtd">
<svg version="1.1" id="Layer_1" xmlns="http://www.w3.org/2000/svg" xmlns:xlink="http://www.w3.org/1999/xlink" x="0px" y="0px"
	 width="91px" height="91px" viewBox="0 0 91 91" enable-background="new 0 0 91 91" xml:space="preserve">
<circle fill="none" stroke="#EEEEEE" stroke-width="4" stroke-miterlimit="10" cx="45.5" cy="45.5" r="42.484"/>
<g>
	<path fill="#EEEEEE" d="M54.049,57.143c0-4.021-2.33-6.006-4.895-8.164l-2.1-1.633c-0.645-0.521-1.517-1.224-1.517-2.505
		c0-1.282,0.876-2.1,1.634-2.854c2.444-1.924,4.896-3.963,4.896-8.276c0-4.432-2.799-6.762-4.139-7.869l0,0h3.611l3.729-2.098
		H43.264c-3.146,0-7.107,0.465-10.434,3.205c-2.506,2.155-3.729,5.131-3.729,7.811c0,4.545,3.496,9.152,9.674,9.152
		c0.585,0,1.222-0.061,1.867-0.115c-0.29,0.699-0.581,1.281-0.581,2.273c0,1.803,0.932,2.914,1.747,3.961
		c-2.62,0.176-7.521,0.467-11.133,2.682c-3.438,2.039-4.485,5.016-4.485,7.111c0,4.312,4.082,8.336,12.532,8.336
		C48.744,68.159,54.049,62.618,54.049,57.143z M41.516,42.279c-5.014,0-7.286-6.472-7.286-10.375c0-1.517,0.291-3.086,1.28-4.313
		c0.935-1.166,2.564-1.926,4.082-1.926c4.838,0,7.346,6.529,7.346,10.724c0,1.051-0.114,2.915-1.458,4.257
		C44.547,41.579,42.973,42.276,41.516,42.279z M41.576,65.71c-6.236,0-10.259-2.974-10.259-7.108c0-4.14,3.729-5.537,5.014-6.002
		c2.449-0.813,5.595-0.937,6.121-0.937c0.582,0,0.873,0,1.338,0.06c4.433,3.147,6.353,4.721,6.353,7.694
		C50.143,63.025,47.172,65.71,41.576,65.71z"/>
	<polygon fill="#EEEEEE" points="54.574,45.821 60.887,45.821 60.887,52.128 64.041,52.128 64.041,45.821 70.348,45.821 
		70.348,42.667 64.041,42.667 64.041,36.359 60.887,36.359 60.887,42.667 54.574,42.667 	"/>
</g>
</svg>
