<svg xmlns="http://www.w3.org/2000/svg" viewBox="0 0 146.08 99.95"><path d="M31.11,97.13c1-18.86-1.06-37.71,1.14-56.52A120.21,120.21,0,0,1,36.72,18c1.82-5.7,5.55-13.36,12.93-12.76,9.59.78,9.53,13.15,9.79,20.08.36,9.4.68,18.28-.66,27.64-2,13.72-5.91,31.47,5.24,42.52,17,16.85,30.34-38.62,32.66-48.11,2-8.17,3.81-16.42,5.17-24.73.9-5.46,1.89-14.91,7.9-17.22C116.52,2.83,119.43,12,120,16.76c.8,6.83,0,13.85-.56,20.67-1.73,19.84-5,40.18-3.59,60.11.22,3.19,5.22,3.22,5,0-1.33-19.35,1.75-39.06,3.43-58.32C125.17,28.88,128,14,121.06,5c-2.52-3.26-7.18-5.62-11.39-4.86-5.1.92-8.46,6.47-10.18,10.85-2.48,6.33-2.24,9.42-3.42,15.59a337.44,337.44,0,0,1-8.21,34.24,153.86,153.86,0,0,1-7,19.41c-2,4.31-7.54,17.51-13.28,11.73C61.1,85.46,61,75.58,61.87,67c1-10.53,3.65-20.94,3.12-31.58C64.43,24,66.52,2.74,50.83.4,44.76-.51,38.15,3.71,35.16,8.84c-4,6.82-5.44,15.31-6.7,23-3.57,21.76-1.16,43.44-2.36,65.31-.18,3.22,4.82,3.21,5,0Z"/><path d="M143.66,54.27H2.41c-3.22,0-3.22,5,0,5H143.66c3.22,0,3.22-5,0-5Z"/></svg>
