<?xml version="1.0" encoding="utf-8"?>
<!-- Generator: Adobe Illustrator 16.0.0, SVG Export Plug-In . SVG Version: 6.00 Build 0)  -->
<!DOCTYPE svg PUBLIC "-//W3C//DTD SVG 1.1//EN" "http://www.w3.org/Graphics/SVG/1.1/DTD/svg11.dtd">
<svg version="1.1" id="Layer_1" xmlns="http://www.w3.org/2000/svg" xmlns:xlink="http://www.w3.org/1999/xlink" x="0px" y="0px"
	 width="90.99px" height="91px" viewBox="0 0 90.99 91" enable-background="new 0 0 90.99 91" xml:space="preserve">
<circle fill="none" stroke="#EEEEEE" stroke-width="4" stroke-miterlimit="10" cx="45.495" cy="45.5" r="42.484"/>
<g>
	<path fill="#EEEEEE" d="M63.77,20.353H26.884c-3.771,0-6.707,2.935-6.707,6.707v36.882c0,3.771,2.936,6.707,6.707,6.707H63.77
		c3.771,0,6.707-2.936,6.707-6.707V27.06C70.477,23.287,67.542,20.353,63.77,20.353z M26.886,24.543h36.885
		c1.468,0,2.516,1.049,2.516,2.517v10.06H55.643c-2.64-2.598-6.271-4.191-10.312-4.191c-4.047,0-7.677,1.594-10.313,4.191H24.372
		V27.06C24.37,25.592,25.419,24.543,26.886,24.543z M55.807,47.599c0,5.864-4.611,10.477-10.479,10.477
		c-5.869,0-10.479-4.61-10.479-10.477c0-5.87,4.609-10.479,10.479-10.479C51.195,37.119,55.807,41.729,55.807,47.599z M59.609,44.26
		c0.029,0.113,0.058,0.221,0.086,0.336C59.675,44.483,59.639,44.373,59.609,44.26z M59.816,45.373
		c0.034,0.234,0.082,0.465,0.104,0.699C59.898,45.838,59.851,45.607,59.816,45.373z M30.735,46.07
		c0.021-0.234,0.069-0.465,0.104-0.699C30.805,45.607,30.759,45.838,30.735,46.07z M30.96,44.596
		c0.021-0.115,0.06-0.223,0.086-0.336C31.019,44.373,30.981,44.483,30.96,44.596z M55.807,34.394v-7.125
		c0-0.418,0.209-0.629,0.629-0.629h7.126c0.419,0,0.629,0.211,0.629,0.629v7.125c0,0.418-0.209,0.629-0.629,0.629h-7.126
		C56.016,35.022,55.807,34.812,55.807,34.394z M51.614,47.599c0,3.562-2.724,6.286-6.285,6.286c-3.563,0-6.289-2.727-6.289-6.286
		c0-0.63,0.209-1.261,0.209-1.888c0.629,1.047,1.676,1.888,2.936,1.888c1.677,0,3.145-1.468,3.145-3.146
		c0-1.259-0.839-2.516-1.887-2.933c0.628,0,1.258-0.211,1.887-0.211C48.892,41.31,51.614,44.033,51.614,47.599z"/>
</g>
</svg>
