<?xml version="1.0" encoding="utf-8"?>
<!-- Generator: Adobe Illustrator 16.0.0, SVG Export Plug-In . SVG Version: 6.00 Build 0)  -->
<!DOCTYPE svg PUBLIC "-//W3C//DTD SVG 1.1//EN" "http://www.w3.org/Graphics/SVG/1.1/DTD/svg11.dtd">
<svg version="1.1" id="Layer_1" xmlns="http://www.w3.org/2000/svg" xmlns:xlink="http://www.w3.org/1999/xlink" x="0px" y="0px"
	 width="91px" height="91px" viewBox="0 0 91 91" enable-background="new 0 0 91 91" xml:space="preserve">
<circle fill="none" stroke="#F2F2F2" stroke-width="5" stroke-miterlimit="10" cx="45.5" cy="45.5" r="42.484"/>
<path fill="#F2F2F2" d="M67.528,29.086c-1.769,1.043-3.724,1.804-5.8,2.217c-1.67-1.775-4.043-2.885-6.667-2.885
	c-5.046,0-9.136,4.09-9.136,9.129c0,0.715,0.08,1.414,0.237,2.082c-7.59-0.381-14.321-4.016-18.823-9.541
	c-0.783,1.349-1.231,2.916-1.231,4.59c0,3.166,1.612,5.962,4.062,7.599c-1.498-0.051-2.9-0.459-4.136-1.146v0.115
	c0,4.424,3.146,8.109,7.325,8.953c-0.766,0.209-1.572,0.314-2.406,0.314c-0.594,0-1.158-0.051-1.72-0.158
	c1.163,3.625,4.532,6.27,8.528,6.344c-3.125,2.447-7.061,3.908-11.34,3.908c-0.735,0-1.466-0.047-2.18-0.129
	c4.043,2.592,8.842,4.104,13.997,4.104c16.797,0,25.979-13.91,25.979-25.981l-0.025-1.183c1.785-1.28,3.338-2.89,4.562-4.715
	c-1.638,0.723-3.401,1.219-5.244,1.438C65.4,33.008,66.846,31.219,67.528,29.086z"/>
</svg>
