<?xml version="1.0" encoding="utf-8"?>
<!-- Generator: Adobe Illustrator 21.0.0, SVG Export Plug-In . SVG Version: 6.00 Build 0)  -->
<svg version="1.1" id="Layer_1" xmlns="http://www.w3.org/2000/svg" xmlns:xlink="http://www.w3.org/1999/xlink" x="0px" y="0px"
	 viewBox="0 0 400 200" style="enable-background:new 0 0 400 200;" xml:space="preserve">
<style type="text/css">
	.st0{fill:#ffffff;}
</style>
<g>
	<path class="st0" d="M60.3,68c-0.4,1-1.6,2-4.1,2h-6c-1.1,0-1.8,0.9-1.9,1.8v65.4h-5.4c-1.8,0-2.1-1.1-2.1-1.6V70H30v-5.2
		c0-1.3,1.1-2.3,2.3-2.3h30.5L60.3,68z"/>
	<path class="st0" d="M121.6,129.6c-0.9,1.9-2.1,4.9-2.5,5.6c-0.5,1-1.7,2-4.2,2H97.9V64.5c0.1-1.2,1.1-2.1,2.3-2.1h20l-2.6,5.6
		c-0.4,1-1.6,2.1-4.1,2.1h-6.2c-1.1,0-1.8,0.7-1.8,1.8v22.2h11.5c-0.9,1.9-2.1,5-2.5,5.7c-0.5,1-1.6,2-4.1,2h-3.2
		c-1,0-1.8,0.9-1.8,1.8v26H121.6z"/>
	<path class="st0" d="M186.1,129.6c-0.9,1.9-2.1,4.9-2.5,5.6c-0.5,1-1.7,2-4.2,2h-18.4V62.4h5.3c1.3,0.1,2.3,1.1,2.3,2.3v64.8H186.1
		z"/>
	<path class="st0" d="M244.9,129.6c-0.9,1.9-2.1,4.9-2.5,5.6c-0.5,1-1.7,2-4.2,2h-18.4V62.4h5.3c1.3,0.1,2.3,1.1,2.3,2.3v64.8H244.9
		z"/>
	<path class="st0" d="M300.4,128.4c0,5.1-4.2,9-9.2,9.1v0.1h-5.9c-5.2,0-9.5-4-9.5-9.2V64.5c0.1-1.2,1.1-2.1,2.2-2.1h5.4V127
		c0,2.2,1.7,4.1,4,4.1h1.2c2.2,0,4.1-1.8,4.1-4.1V62.4h7.7V128.4z"/>
	<path class="st0" d="M370,137.2h-7.6V98.6l-5.8,25.6h-2.3c-4.5,0-5.3-4.5-5.8-6.1L344,98.6v38.6h-7.6V62.4h4.7c3,0,3.4,2.8,3.4,2.8
		l8.9,42.9l8.4-43c0.1-0.3,0.6-2.7,3.4-2.7h4.7V137.2z"/>
</g>
</svg>
