<?xml version="1.0" encoding="utf-8"?>
<!-- Generator: Adobe Illustrator 16.0.0, SVG Export Plug-In . SVG Version: 6.00 Build 0)  -->
<!DOCTYPE svg PUBLIC "-//W3C//DTD SVG 1.1//EN" "http://www.w3.org/Graphics/SVG/1.1/DTD/svg11.dtd">
<svg version="1.1" id="Layer_1" xmlns="http://www.w3.org/2000/svg" xmlns:xlink="http://www.w3.org/1999/xlink" x="0px" y="0px"
	 width="91px" height="91px" viewBox="0 0 91 91" enable-background="new 0 0 91 91" xml:space="preserve">
<circle fill="none" stroke="#EEEEEE" stroke-width="4" stroke-miterlimit="10" cx="45.5" cy="45.5" r="42.484"/>
<path fill="#EEEEEE" d="M64.682,39.336c-1.988,0.232-3.707,1.115-5.264,2.336c-1.352,1.062-2.445,2.371-3.543,3.675
	c-0.191,0.227-0.271,0.208-0.455-0.009c-0.852-1.016-1.72-2.018-2.701-2.912c-2.365-2.161-5.07-3.432-8.36-3.127
	c-2.335,0.215-4.3,1.168-5.854,2.936c-0.709,0.807-1.207,1.737-1.613,2.805c-0.07-0.146-0.112-0.229-0.153-0.312
	c-0.375-0.761-0.84-1.458-1.438-2.062c-1.432-1.447-3.168-2.209-5.201-2.317c-2.114-0.114-4.03,0.35-5.604,1.862
	c-0.055,0.054-0.107,0.166-0.199,0.108c-0.084-0.05-0.031-0.155-0.017-0.231c0.317-1.823,0.651-3.644,0.954-5.469
	c0.053-0.32,0.18-0.367,0.464-0.365c3.431,0.009,6.858,0.002,10.288,0.012c0.266,0.001,0.333-0.07,0.331-0.332
	c-0.017-1.283-0.013-2.567-0.002-3.85c0.002-0.215-0.05-0.289-0.277-0.289c-4.786,0.006-9.573,0.006-14.36,0
	c-0.203,0-0.272,0.068-0.304,0.256c-0.093,0.57-0.198,1.139-0.299,1.707c-0.743,4.16-1.483,8.32-2.231,12.479
	c-0.043,0.238,0.008,0.312,0.258,0.31c1.443-0.013,2.885-0.008,4.324-0.004c0.16,0,0.274-0.033,0.373-0.175
	c1.062-1.489,2.529-2.079,4.324-1.954c1.247,0.088,2.311,0.566,3.092,1.549c1.18,1.481,1.375,3.181,0.922,4.959
	c-0.674,2.644-3.032,4.097-5.599,3.459c-1.839-0.455-2.819-1.728-3.128-3.554c-0.041-0.233-0.107-0.305-0.35-0.303
	c-1.598,0.013-3.197,0.013-4.797,0c-0.25,0-0.32,0.062-0.305,0.314c0.202,3.312,1.836,5.658,4.811,7.066
	c1.775,0.842,3.682,1.09,5.628,1.021c2.69-0.096,4.975-1.12,6.823-3.088c0.733-0.78,1.293-1.68,1.746-2.653
	c0.104,0.077,0.115,0.188,0.157,0.28c0.323,0.736,0.716,1.433,1.239,2.043c2.305,2.693,5.27,3.599,8.701,3.132
	c1.939-0.265,3.599-1.183,5.1-2.404c1.188-0.967,2.191-2.118,3.249-3.217c0.211-0.22,0.29-0.177,0.465,0.022
	c1.036,1.178,2.11,2.319,3.365,3.271c1.922,1.459,4.024,2.414,6.495,2.441c4.049,0.049,7.218-2.123,8.589-5.934
	c0.741-2.059,0.875-4.17,0.436-6.307C73.717,41.439,69.604,38.76,64.682,39.336z M52.379,49.264c-1.396,1.58-2.93,2.988-4.938,3.77
	c-0.941,0.367-1.91,0.5-2.907,0.316c-1.815-0.33-3.067-1.738-3.229-3.615c-0.019-0.198-0.027-0.397-0.039-0.521
	c0-1.348,0.397-2.479,1.231-3.435c1.076-1.229,2.453-1.446,3.968-1.071c0.994,0.248,1.857,0.773,2.68,1.365
	c1.184,0.854,2.203,1.883,3.205,2.932C52.43,49.09,52.48,49.146,52.379,49.264z M69.684,50.951
	c-0.688,1.744-2.246,2.646-4.172,2.467c-1.709-0.158-3.111-0.961-4.406-2.004c-0.782-0.627-1.471-1.354-2.139-2.102
	c-0.092-0.104-0.146-0.177-0.021-0.312c0.949-0.998,1.869-2.024,2.968-2.869c0.985-0.756,2.03-1.383,3.3-1.551
	c2.416-0.319,4.453,1.248,4.756,3.668c0.035,0.271,0.065,0.543,0.059,0.728C70.023,49.715,69.924,50.35,69.684,50.951z"/>
</svg>
