# Blender v2.78 (sub 0) OBJ File: ''
# www.blender.org
mtllib test.mtl
o Cube
v -0.878472 0.000000 0.000000
v -0.819444 0.000000 0.350694
v -0.819444 0.350694 0.000000
v -0.819444 0.000000 -0.350694
v -0.819444 -0.350694 0.000000
v -0.763889 -0.326389 0.326389
v -0.763889 0.326389 0.326389
v -0.763889 0.326389 -0.326389
v -0.763889 -0.326389 -0.326389
v 0.000000 0.000000 -0.878472
v -0.350694 0.000000 -0.819444
v 0.000000 0.350694 -0.819444
v 0.350694 0.000000 -0.819444
v 0.000000 -0.350694 -0.819444
v -0.326389 -0.326389 -0.763889
v -0.326389 0.326389 -0.763889
v 0.326389 0.326389 -0.763889
v 0.326389 -0.326389 -0.763889
v 0.878472 0.000000 0.000000
v 0.819444 0.000000 -0.350694
v 0.819444 0.350694 0.000000
v 0.819444 0.000000 0.350694
v 0.819444 -0.350694 0.000000
v 0.763889 -0.326389 -0.326389
v 0.763889 0.326389 -0.326389
v 0.763889 0.326389 0.326389
v 0.763889 -0.326389 0.326389
v 0.000000 0.000000 0.878472
v 0.350694 0.000000 0.819444
v 0.000000 0.350694 0.819444
v -0.350694 0.000000 0.819444
v 0.000000 -0.350694 0.819444
v 0.326389 -0.326389 0.763889
v 0.326389 0.326389 0.763889
v -0.326389 0.326389 0.763889
v -0.326389 -0.326389 0.763889
v 0.000000 -0.878472 0.000000
v 0.000000 -0.819444 -0.350694
v 0.350694 -0.819444 0.000000
v 0.000000 -0.819444 0.350694
v -0.350694 -0.819444 0.000000
v -0.326389 -0.763889 -0.326389
v 0.326389 -0.763889 -0.326389
v 0.326389 -0.763889 0.326389
v -0.326389 -0.763889 0.326389
v 0.000000 0.878472 0.000000
v 0.000000 0.819444 -0.350694
v -0.350694 0.819444 0.000000
v 0.000000 0.819444 0.350694
v 0.350694 0.819444 0.000000
v 0.326389 0.763889 -0.326389
v -0.326389 0.763889 -0.326389
v -0.326389 0.763889 0.326389
v 0.326389 0.763889 0.326389
v -0.598958 -0.598958 -0.302083
v -0.643229 -0.643229 0.000000
v -0.598958 -0.598958 0.302083
v -0.598958 -0.302083 0.598958
v -0.643229 0.000000 0.643229
v -0.598958 0.302083 0.598958
v -0.598958 0.598958 0.302083
v -0.643229 0.643229 0.000000
v -0.598958 0.598958 -0.302083
v -0.598958 0.302083 -0.598958
v -0.643229 0.000000 -0.643229
v -0.598958 -0.302083 -0.598958
v 0.302083 -0.598958 -0.598958
v 0.000000 -0.643229 -0.643229
v -0.302083 -0.598958 -0.598958
v -0.302083 0.598958 -0.598958
v 0.000000 0.643229 -0.643229
v 0.302083 0.598958 -0.598958
v 0.598958 0.302083 -0.598958
v 0.643229 0.000000 -0.643229
v 0.598958 -0.302083 -0.598958
v 0.598958 -0.598958 0.302083
v 0.643229 -0.643229 0.000000
v 0.598958 -0.598958 -0.302083
v 0.598958 0.598958 -0.302083
v 0.643229 0.643229 0.000000
v 0.598958 0.598958 0.302083
v 0.598958 0.302083 0.598958
v 0.643229 0.000000 0.643229
v 0.598958 -0.302083 0.598958
v -0.302083 -0.598958 0.598958
v 0.000000 -0.643229 0.643229
v 0.302083 -0.598958 0.598958
v 0.302083 0.598958 0.598958
v 0.000000 0.643229 0.643229
v -0.302083 0.598958 0.598958
v -0.509259 -0.509259 0.509259
v -0.509259 0.509259 0.509259
v -0.509259 -0.509259 -0.509259
v -0.509259 0.509259 -0.509259
v 0.509259 -0.509259 0.509259
v 0.509259 0.509259 0.509259
v 0.509259 -0.509259 -0.509259
v 0.509259 0.509259 -0.509259
vn -0.9705 -0.1704 0.1704
vn -0.8371 -0.1890 0.5134
vn -0.8371 -0.5134 0.1890
vn -0.7126 -0.4961 0.4961
vn -0.9705 0.1704 0.1704
vn -0.8371 0.5134 0.1890
vn -0.8371 0.1890 0.5134
vn -0.7126 0.4961 0.4961
vn -0.9705 0.1704 -0.1704
vn -0.8371 0.1890 -0.5134
vn -0.8371 0.5134 -0.1890
vn -0.7126 0.4961 -0.4961
vn -0.9705 -0.1704 -0.1704
vn -0.8371 -0.5134 -0.1890
vn -0.8371 -0.1890 -0.5134
vn -0.7126 -0.4961 -0.4961
vn -0.1704 -0.1704 -0.9705
vn -0.5134 -0.1890 -0.8371
vn -0.1890 -0.5134 -0.8371
vn -0.4961 -0.4961 -0.7126
vn -0.1704 0.1704 -0.9705
vn -0.1890 0.5134 -0.8371
vn -0.5134 0.1890 -0.8371
vn -0.4961 0.4961 -0.7126
vn 0.1704 0.1704 -0.9705
vn 0.5134 0.1890 -0.8371
vn 0.1890 0.5134 -0.8371
vn 0.4961 0.4961 -0.7126
vn 0.1704 -0.1704 -0.9705
vn 0.1890 -0.5134 -0.8371
vn 0.5134 -0.1890 -0.8371
vn 0.4961 -0.4961 -0.7126
vn 0.9705 -0.1704 -0.1704
vn 0.8371 -0.1890 -0.5134
vn 0.8371 -0.5134 -0.1890
vn 0.7126 -0.4961 -0.4961
vn 0.9705 0.1704 -0.1704
vn 0.8371 0.5134 -0.1890
vn 0.8371 0.1890 -0.5134
vn 0.7126 0.4961 -0.4961
vn 0.9705 0.1704 0.1704
vn 0.8371 0.1890 0.5134
vn 0.8371 0.5134 0.1890
vn 0.7126 0.4961 0.4961
vn 0.9705 -0.1704 0.1704
vn 0.8371 -0.5134 0.1890
vn 0.8371 -0.1890 0.5134
vn 0.7126 -0.4961 0.4961
vn 0.1704 -0.1704 0.9705
vn 0.5134 -0.1890 0.8371
vn 0.1890 -0.5134 0.8371
vn 0.4961 -0.4961 0.7126
vn 0.1704 0.1704 0.9705
vn 0.1890 0.5134 0.8371
vn 0.5134 0.1890 0.8371
vn 0.4961 0.4961 0.7126
vn -0.1704 0.1704 0.9705
vn -0.5134 0.1890 0.8371
vn -0.1890 0.5134 0.8371
vn -0.4961 0.4961 0.7126
vn -0.1704 -0.1704 0.9705
vn -0.1890 -0.5134 0.8371
vn -0.5134 -0.1890 0.8371
vn -0.4961 -0.4961 0.7126
vn -0.1704 -0.9705 -0.1704
vn -0.1890 -0.8371 -0.5134
vn -0.5134 -0.8371 -0.1890
vn -0.4961 -0.7126 -0.4961
vn 0.1704 -0.9705 -0.1704
vn 0.5134 -0.8371 -0.1890
vn 0.1890 -0.8371 -0.5134
vn 0.4961 -0.7126 -0.4961
vn 0.1704 -0.9705 0.1704
vn 0.1890 -0.8371 0.5134
vn 0.5134 -0.8371 0.1890
vn 0.4961 -0.7126 0.4961
vn -0.1704 -0.9705 0.1704
vn -0.5134 -0.8371 0.1890
vn -0.1890 -0.8371 0.5134
vn -0.4961 -0.7126 0.4961
vn 0.1704 0.9705 -0.1704
vn 0.1890 0.8371 -0.5134
vn 0.5134 0.8371 -0.1890
vn 0.4961 0.7126 -0.4961
vn -0.1704 0.9705 -0.1704
vn -0.5134 0.8371 -0.1890
vn -0.1890 0.8371 -0.5134
vn -0.4961 0.7126 -0.4961
vn -0.1704 0.9705 0.1704
vn -0.1890 0.8371 0.5134
vn -0.5134 0.8371 0.1890
vn -0.4961 0.7126 0.4961
vn 0.1704 0.9705 0.1704
vn 0.5134 0.8371 0.1890
vn 0.1890 0.8371 0.5134
vn 0.4961 0.7126 0.4961
usemtl None
s off
f 1//1 5//1 6//1 2//1
f 2//2 6//2 58//2 59//2
f 5//3 56//3 57//3 6//3
f 6//4 57//4 91//4 58//4
f 1//5 2//5 7//5 3//5
f 3//6 7//6 61//6 62//6
f 2//7 59//7 60//7 7//7
f 7//8 60//8 92//8 61//8
f 1//9 3//9 8//9 4//9
f 4//10 8//10 64//10 65//10
f 3//11 62//11 63//11 8//11
f 8//12 63//12 94//12 64//12
f 1//13 4//13 9//13 5//13
f 5//14 9//14 55//14 56//14
f 4//15 65//15 66//15 9//15
f 9//16 66//16 93//16 55//16
f 10//17 14//17 15//17 11//17
f 11//18 15//18 66//18 65//18
f 14//19 68//19 69//19 15//19
f 15//20 69//20 93//20 66//20
f 10//21 11//21 16//21 12//21
f 12//22 16//22 70//22 71//22
f 11//23 65//23 64//23 16//23
f 16//24 64//24 94//24 70//24
f 10//25 12//25 17//25 13//25
f 13//26 17//26 73//26 74//26
f 12//27 71//27 72//27 17//27
f 17//28 72//28 98//28 73//28
f 10//29 13//29 18//29 14//29
f 14//30 18//30 67//30 68//30
f 13//31 74//31 75//31 18//31
f 18//32 75//32 97//32 67//32
f 19//33 23//33 24//33 20//33
f 20//34 24//34 75//34 74//34
f 23//35 77//35 78//35 24//35
f 24//36 78//36 97//36 75//36
f 19//37 20//37 25//37 21//37
f 21//38 25//38 79//38 80//38
f 20//39 74//39 73//39 25//39
f 25//40 73//40 98//40 79//40
f 19//41 21//41 26//41 22//41
f 22//42 26//42 82//42 83//42
f 21//43 80//43 81//43 26//43
f 26//44 81//44 96//44 82//44
f 19//45 22//45 27//45 23//45
f 23//46 27//46 76//46 77//46
f 22//47 83//47 84//47 27//47
f 27//48 84//48 95//48 76//48
f 28//49 32//49 33//49 29//49
f 29//50 33//50 84//50 83//50
f 32//51 86//51 87//51 33//51
f 33//52 87//52 95//52 84//52
f 28//53 29//53 34//53 30//53
f 30//54 34//54 88//54 89//54
f 29//55 83//55 82//55 34//55
f 34//56 82//56 96//56 88//56
f 28//57 30//57 35//57 31//57
f 31//58 35//58 60//58 59//58
f 30//59 89//59 90//59 35//59
f 35//60 90//60 92//60 60//60
f 28//61 31//61 36//61 32//61
f 32//62 36//62 85//62 86//62
f 31//63 59//63 58//63 36//63
f 36//64 58//64 91//64 85//64
f 37//65 41//65 42//65 38//65
f 38//66 42//66 69//66 68//66
f 41//67 56//67 55//67 42//67
f 42//68 55//68 93//68 69//68
f 37//69 38//69 43//69 39//69
f 39//70 43//70 78//70 77//70
f 38//71 68//71 67//71 43//71
f 43//72 67//72 97//72 78//72
f 37//73 39//73 44//73 40//73
f 40//74 44//74 87//74 86//74
f 39//75 77//75 76//75 44//75
f 44//76 76//76 95//76 87//76
f 37//77 40//77 45//77 41//77
f 41//78 45//78 57//78 56//78
f 40//79 86//79 85//79 45//79
f 45//80 85//80 91//80 57//80
f 46//81 50//81 51//81 47//81
f 47//82 51//82 72//82 71//82
f 50//83 80//83 79//83 51//83
f 51//84 79//84 98//84 72//84
f 46//85 47//85 52//85 48//85
f 48//86 52//86 63//86 62//86
f 47//87 71//87 70//87 52//87
f 52//88 70//88 94//88 63//88
f 46//89 48//89 53//89 49//89
f 49//90 53//90 90//90 89//90
f 48//91 62//91 61//91 53//91
f 53//92 61//92 92//92 90//92
f 46//93 49//93 54//93 50//93
f 50//94 54//94 81//94 80//94
f 49//95 89//95 88//95 54//95
f 54//96 88//96 96//96 81//96
